<svg width="1240" height="560" viewBox="0 0 1240 560" fill="none" xmlns="http://www.w3.org/2000/svg" role="img" aria-label="OffgridCloud Datenfluss: Feld-Team laedt lokal und schnell auf die Box, die Box uebertraegt bandbreiten-bewusst und resilient in die Cloud">
  <defs>
    <linearGradient id="aBg" x1="0" y1="0" x2="1240" y2="560" gradientUnits="userSpaceOnUse">
      <stop offset="0" stop-color="#0B1220"/>
      <stop offset="1" stop-color="#0d1530"/>
    </linearGradient>
    <linearGradient id="aTeal" x1="0" y1="0" x2="1" y2="1">
      <stop offset="0" stop-color="#0EA5A4"/>
      <stop offset="1" stop-color="#1D4ED8"/>
    </linearGradient>
    <linearGradient id="aBox" x1="0" y1="0" x2="0" y2="1">
      <stop offset="0" stop-color="#0EA5A4"/>
      <stop offset="0.55" stop-color="#1D4ED8"/>
      <stop offset="1" stop-color="#312E81"/>
    </linearGradient>
    <linearGradient id="aFlowFast" x1="0" y1="0" x2="1" y2="0">
      <stop offset="0" stop-color="#0EA5A4" stop-opacity="0.15"/>
      <stop offset="1" stop-color="#0EA5A4"/>
    </linearGradient>
    <linearGradient id="aFlowCloud" x1="0" y1="0" x2="1" y2="0">
      <stop offset="0" stop-color="#1D4ED8"/>
      <stop offset="1" stop-color="#6366F1" stop-opacity="0.85"/>
    </linearGradient>
    <filter id="aShadow" x="-20%" y="-20%" width="140%" height="140%">
      <feDropShadow dx="0" dy="10" stdDeviation="16" flood-color="#000000" flood-opacity="0.45"/>
    </filter>
    <style>
      text { font-family: -apple-system, "Segoe UI", Roboto, Helvetica, Arial, sans-serif; }
      .zone  { fill:#e2e8f0; font-size:15px; font-weight:700; letter-spacing:.4px; }
      .h     { fill:#f8fafc; font-size:19px; font-weight:700; }
      .sub   { fill:#94a3b8; font-size:13px; }
      .chip  { fill:#cbd5e1; font-size:13px; font-weight:600; }
      .flowlbl { fill:#e2e8f0; font-size:13px; font-weight:700; }
      .flowsub { fill:#94a3b8; font-size:11.5px; }
    </style>
  </defs>

  <rect x="0" y="0" width="1240" height="560" rx="24" fill="url(#aBg)"/>
  <rect x="0.5" y="0.5" width="1239" height="559" rx="24" fill="none" stroke="#ffffff" stroke-opacity="0.06"/>

  <!-- Header -->
  <text x="40" y="52" class="h">Vom Feld in die Cloud &#8212; entkoppelt, bandbreiten-bewusst, resilient</text>
  <text x="40" y="78" class="sub">Annahme und Cloud-Upload sind getrennt: lokal wird sofort angenommen, die Box sendet autonom, sobald die Leitung es hergibt.</text>

  <!-- ===================== ZONE 1: FELD ===================== -->
  <text x="70" y="126" class="zone">IM FELD &#183; INSTABILE VERBINDUNG</text>
  <g filter="url(#aShadow)">
    <rect x="48" y="140" width="300" height="300" rx="20" fill="#111c33" stroke="#ffffff" stroke-opacity="0.07"/>
  </g>

  <!-- device: phone -->
  <g transform="translate(78,176)">
    <rect x="0" y="0" width="52" height="88" rx="10" fill="#1e293b" stroke="#0EA5A4" stroke-opacity="0.5"/>
    <rect x="8" y="10" width="36" height="60" rx="3" fill="#0b1220"/>
    <circle cx="26" cy="79" r="3.5" fill="#334155"/>
    <path d="M18 44 l8 -12 8 12 h-5 v12 h-6 v-12 z" fill="#0EA5A4"/>
  </g>
  <text x="104" y="286" text-anchor="middle" class="chip">Handy</text>

  <!-- device: camera -->
  <g transform="translate(150,190)">
    <rect x="0" y="8" width="70" height="52" rx="9" fill="#1e293b" stroke="#0EA5A4" stroke-opacity="0.5"/>
    <rect x="20" y="0" width="26" height="12" rx="3" fill="#1e293b" stroke="#0EA5A4" stroke-opacity="0.5"/>
    <circle cx="35" cy="34" r="16" fill="#0b1220" stroke="#334155"/>
    <circle cx="35" cy="34" r="8" fill="#0EA5A4" fill-opacity="0.55"/>
  </g>
  <text x="185" y="286" text-anchor="middle" class="chip">Kamera</text>

  <!-- device: laptop -->
  <g transform="translate(240,196)">
    <rect x="0" y="0" width="70" height="44" rx="6" fill="#1e293b" stroke="#0EA5A4" stroke-opacity="0.5"/>
    <rect x="7" y="7" width="56" height="30" rx="2" fill="#0b1220"/>
    <path d="M-6 52 h82 l-6 -10 h-70 z" fill="#334155"/>
    <path d="M26 26 l9 -12 9 12 h-6 v10 h-6 v-10 z" fill="#0EA5A4"/>
  </g>
  <text x="275" y="286" text-anchor="middle" class="chip">Laptop</text>

  <!-- fast local intake pill -->
  <rect x="76" y="326" width="244" height="86" rx="14" fill="#0EA5A4" fill-opacity="0.10" stroke="#0EA5A4" stroke-opacity="0.35"/>
  <g transform="translate(96,348)">
    <circle cx="10" cy="10" r="10" fill="url(#aTeal)"/>
    <path d="M6 10 l3 3 6 -7" stroke="#fff" stroke-width="2" fill="none" stroke-linecap="round" stroke-linejoin="round"/>
  </g>
  <text x="126" y="356" class="flowlbl">Lokal &amp; schnell</text>
  <text x="126" y="376" class="flowsub">chunked / resumable &#183; volle LAN-Geschwindigkeit</text>
  <text x="126" y="398" class="flowsub">kein Warten auf die Cloud</text>

  <!-- flow arrow 1: field -> box (fat, fast) -->
  <g>
    <path d="M356 290 h58" stroke="url(#aFlowFast)" stroke-width="16" stroke-linecap="round"/>
    <path d="M410 290 l-14 -9 v18 z" fill="#0EA5A4"/>
  </g>

  <!-- ===================== ZONE 2: BOX ===================== -->
  <text x="470" y="126" class="zone" text-anchor="middle" transform="translate(140,0)">OFFGRIDCLOUD BOX &#183; RASPBERRY PI 3</text>
  <g filter="url(#aShadow)">
    <rect x="432" y="140" width="356" height="300" rx="20" fill="#111c33" stroke="#ffffff" stroke-opacity="0.07"/>
  </g>

  <!-- box tile / brand -->
  <g transform="translate(456,168)">
    <rect x="0" y="0" width="60" height="60" rx="16" fill="url(#aBox)"/>
    <path d="M18 48 a12 12 0 0 1 1 -24 a16 16 0 0 1 30 -2 a11 11 0 0 1 2 26 z" fill="#fff"/>
    <rect x="27" y="30" width="8" height="18" rx="4" fill="#0EA5A4"/>
    <path d="M31 20 l11 13 h-22 z" fill="#0EA5A4"/>
  </g>
  <text x="528" y="192" class="h" font-size="17">Puffer &amp; Worker</text>
  <text x="528" y="214" class="sub">SQLite-Queue &#183; ein Prozess &#183; ~150&#8211;250 MB RAM</text>

  <!-- local buffer bar -->
  <text x="456" y="256" class="chip" font-size="12" fill="#94a3b8">LOKALER PUFFER (USB-SSD)</text>
  <rect x="456" y="266" width="308" height="18" rx="9" fill="#0b1220" stroke="#ffffff" stroke-opacity="0.06"/>
  <rect x="458" y="268" width="150" height="14" rx="7" fill="url(#aTeal)"/>
  <g fill="#0EA5A4" fill-opacity="0.55"><rect x="462" y="271" width="10" height="8" rx="2"/><rect x="478" y="271" width="10" height="8" rx="2"/><rect x="494" y="271" width="10" height="8" rx="2"/><rect x="510" y="271" width="10" height="8" rx="2"/></g>

  <!-- bandwidth-aware worker card -->
  <rect x="456" y="302" width="308" height="112" rx="14" fill="#0f1a30" stroke="#ffffff" stroke-opacity="0.06"/>
  <g transform="translate(474,320)">
    <!-- signal bars -->
    <rect x="0" y="18" width="9" height="10" rx="2" fill="#0EA5A4"/>
    <rect x="14" y="10" width="9" height="18" rx="2" fill="#0EA5A4"/>
    <rect x="28" y="2" width="9" height="26" rx="2" fill="#0EA5A4" fill-opacity="0.45"/>
  </g>
  <text x="522" y="332" class="flowlbl">Bandbreiten-Gate</text>
  <text x="522" y="351" class="flowsub">misst die Leitung, drosselt per --bwlimit</text>
  <!-- status pills -->
  <g transform="translate(474,368)">
    <rect x="0" y="0" width="86" height="30" rx="8" fill="#10b981" fill-opacity="0.14" stroke="#10b981" stroke-opacity="0.3"/>
    <circle cx="16" cy="15" r="4" fill="#34d399"/>
    <text x="28" y="19" fill="#a7f3d0" font-size="12" font-weight="600">3 aktiv</text>
  </g>
  <g transform="translate(568,368)">
    <rect x="0" y="0" width="92" height="30" rx="8" fill="#ffffff" fill-opacity="0.06" stroke="#ffffff" stroke-opacity="0.1"/>
    <circle cx="16" cy="15" r="4" fill="#94a3b8"/>
    <text x="28" y="19" fill="#cbd5e1" font-size="12" font-weight="600">12 wartend</text>
  </g>

  <!-- flow arrow 2: box -> cloud (throttled, resumable) -->
  <g>
    <path d="M796 290 h58" stroke="url(#aFlowCloud)" stroke-width="12" stroke-linecap="round" stroke-dasharray="2 14"/>
    <path d="M796 290 h58" stroke="url(#aFlowCloud)" stroke-width="12" stroke-linecap="round" opacity="0.25"/>
    <path d="M850 290 l-14 -9 v18 z" fill="#6366F1"/>
  </g>
  <g transform="translate(792,236)">
    <path d="M6 12 a7 7 0 0 1 13 0" stroke="#818cf8" stroke-width="2" fill="none" stroke-linecap="round"/>
    <path d="M12 6 v9 M8 12 l4 4 4 -4" stroke="#818cf8" stroke-width="2" fill="none" stroke-linecap="round" stroke-linejoin="round"/>
  </g>
  <text x="820" y="248" text-anchor="middle" class="flowsub" fill="#a5b4fc">resumable &#183; Retry</text>

  <!-- ===================== ZONE 3: CLOUD ===================== -->
  <text x="1080" y="126" class="zone" text-anchor="middle">CLOUD-ZIELE</text>
  <g filter="url(#aShadow)">
    <rect x="872" y="140" width="320" height="300" rx="20" fill="#111c33" stroke="#ffffff" stroke-opacity="0.07"/>
  </g>
  <text x="896" y="176" class="flowsub" fill="#94a3b8">Ein Ordner &#8594; ein oder mehrere Ziele, via rclone</text>

  <!-- provider rows -->
  <g font-size="14" font-weight="600" fill="#e2e8f0">
    <g transform="translate(896,190)">
      <rect x="0" y="0" width="272" height="40" rx="10" fill="#1e293b" stroke="#ffffff" stroke-opacity="0.06"/>
      <rect x="12" y="10" width="20" height="20" rx="5" fill="#FF9900"/>
      <text x="44" y="25">Amazon S3 &#183; MinIO</text>
      <circle cx="252" cy="20" r="4" fill="#34d399"/>
    </g>
    <g transform="translate(896,238)">
      <rect x="0" y="0" width="272" height="40" rx="10" fill="#1e293b" stroke="#ffffff" stroke-opacity="0.06"/>
      <rect x="12" y="10" width="20" height="20" rx="5" fill="#0078D4"/>
      <text x="44" y="25">Azure Blob &#183; OneDrive</text>
      <circle cx="252" cy="20" r="4" fill="#34d399"/>
    </g>
    <g transform="translate(896,286)">
      <rect x="0" y="0" width="272" height="40" rx="10" fill="#1e293b" stroke="#ffffff" stroke-opacity="0.06"/>
      <rect x="12" y="10" width="20" height="20" rx="5" fill="#0EA5A4"/>
      <text x="44" y="25">Nextcloud &#183; ownCloud</text>
      <circle cx="252" cy="20" r="4" fill="#34d399"/>
    </g>
    <g transform="translate(896,334)">
      <rect x="0" y="0" width="272" height="40" rx="10" fill="#1e293b" stroke="#ffffff" stroke-opacity="0.06"/>
      <rect x="12" y="10" width="20" height="20" rx="5" fill="#64748b"/>
      <text x="44" y="25">WebDAV &#183; SFTP &#183; SCP</text>
      <circle cx="252" cy="20" r="4" fill="#34d399"/>
    </g>
    <g transform="translate(896,382)">
      <rect x="0" y="0" width="272" height="40" rx="10" fill="#1e293b" stroke="#ffffff" stroke-opacity="0.06"/>
      <rect x="12" y="10" width="20" height="20" rx="5" fill="#312E81"/>
      <text x="44" y="25">NAS &#183; Hetzner Storage Box</text>
      <text x="234" y="25" font-size="12" fill="#94a3b8">+7</text>
    </g>
  </g>

  <!-- Footer legend -->
  <g transform="translate(48,470)">
    <rect x="0" y="0" width="1144" height="66" rx="14" fill="#0f1a30" stroke="#ffffff" stroke-opacity="0.05"/>
    <g transform="translate(24,20)">
      <rect x="0" y="6" width="26" height="14" rx="7" fill="url(#aTeal)"/>
      <text x="38" y="12" fill="#e2e8f0" font-size="13" font-weight="700">Lokal &amp; schnell</text>
      <text x="38" y="30" fill="#94a3b8" font-size="11.5">volle LAN-Rate, ohne Cloud-Abh&#228;ngigkeit</text>
    </g>
    <g transform="translate(320,20)">
      <rect x="0" y="6" width="26" height="14" rx="7" fill="#6366F1"/>
      <text x="38" y="12" fill="#e2e8f0" font-size="13" font-weight="700">Bandbreiten-bewusst</text>
      <text x="38" y="30" fill="#94a3b8" font-size="11.5">startet / drosselt je nach gemessener Leitung</text>
    </g>
    <g transform="translate(660,20)">
      <circle cx="10" cy="12" r="7" fill="none" stroke="#34d399" stroke-width="2"/>
      <path d="M7 12 l2 2 4 -4" stroke="#34d399" stroke-width="2" fill="none" stroke-linecap="round" stroke-linejoin="round"/>
      <text x="30" y="12" fill="#e2e8f0" font-size="13" font-weight="700">Resilient</text>
      <text x="30" y="30" fill="#94a3b8" font-size="11.5">resumable, Retry/Backoff, Integrit&#228;ts-Check</text>
    </g>
    <g transform="translate(940,20)">
      <path d="M8 4 v14 M2 11 l6 7 6 -7" stroke="#0EA5A4" stroke-width="2" fill="none" stroke-linecap="round" stroke-linejoin="round"/>
      <text x="30" y="12" fill="#e2e8f0" font-size="13" font-weight="700">Akku-fest</text>
      <text x="30" y="30" fill="#94a3b8" font-size="11.5">Konsistenz-Check nach Stromausfall</text>
    </g>
  </g>
</svg>
